<svg width="42" height="42" viewBox="0 0 42 42" fill="none" xmlns="http://www.w3.org/2000/svg">
<path d="M2.33334 11.6663V6.99967C2.33334 5.762 2.825 4.57501 3.70017 3.69984C4.57534 2.82467 5.76233 2.33301 7 2.33301H11.6667" stroke="#317056" stroke-width="4" stroke-linecap="round" stroke-linejoin="round"/>
<path d="M2.33334 30.333V34.9997C2.33334 36.2374 2.825 37.4243 3.70017 38.2995C4.57534 39.1747 5.76233 39.6663 7 39.6663H11.6667" stroke="#317056" stroke-width="4" stroke-linecap="round" stroke-linejoin="round"/>
<path d="M30.3333 2.33301H35C36.2377 2.33301 37.4247 2.82467 38.2998 3.69984C39.175 4.57501 39.6667 5.762 39.6667 6.99967V11.6663" stroke="#317056" stroke-width="4" stroke-linecap="round" stroke-linejoin="round"/>
<path d="M30.3333 39.6663H35C36.2377 39.6663 37.4247 39.1747 38.2998 38.2995C39.175 37.4243 39.6667 36.2374 39.6667 34.9997V30.333" stroke="#317056" stroke-width="4" stroke-linecap="round" stroke-linejoin="round"/>
<path d="M9.33334 21.0003C17.1103 10.1106 24.8897 10.1106 32.6667 21.0003" stroke="#317056" stroke-width="4" stroke-linecap="round" stroke-linejoin="round"/>
<path d="M9.33334 21C17.1103 31.8897 24.8897 31.8897 32.6667 21" stroke="#317056" stroke-width="4" stroke-linecap="round" stroke-linejoin="round"/>
<path d="M21 21H20.9767" stroke="#317056" stroke-width="4" stroke-linecap="round" stroke-linejoin="round"/>
</svg>
