<svg width="49" height="43" viewBox="0 0 49 43" fill="none" xmlns="http://www.w3.org/2000/svg">
<path d="M18.3333 15.9997C18.3333 17.2374 18.825 18.4243 19.7002 19.2995C20.5753 20.1747 21.7623 20.6663 23 20.6663C24.2377 20.6663 25.4247 20.1747 26.2998 19.2995C27.175 18.4243 27.6667 17.2374 27.6667 15.9997C27.6667 14.762 27.175 13.575 26.2998 12.6998C25.4247 11.8247 24.2377 11.333 23 11.333C21.7623 11.333 20.5753 11.8247 19.7002 12.6998C18.825 13.575 18.3333 14.762 18.3333 15.9997Z" stroke="#317056" stroke-width="4" stroke-linecap="round" stroke-linejoin="round"/>
<path d="M23 30C14.6 30 7.6 25.3333 2 16C7.6 6.66667 14.6 2 23 2C31.4 2 38.4 6.66667 44 16" stroke="#317056" stroke-width="4" stroke-linecap="round" stroke-linejoin="round"/>
<path d="M34.669 32.3337C34.669 33.5713 35.1607 34.7583 36.0358 35.6335C36.911 36.5087 38.098 37.0003 39.3357 37.0003C40.5733 37.0003 41.7603 36.5087 42.6355 35.6335C43.5107 34.7583 44.0023 33.5713 44.0023 32.3337C44.0023 31.096 43.5107 29.909 42.6355 29.0338C41.7603 28.1587 40.5733 27.667 39.3357 27.667C38.098 27.667 36.911 28.1587 36.0358 29.0338C35.1607 29.909 34.669 31.096 34.669 32.3337Z" stroke="#317056" stroke-width="4" stroke-linecap="round" stroke-linejoin="round"/>
<path d="M39.3357 24.167V27.667" stroke="#317056" stroke-width="4" stroke-linecap="round" stroke-linejoin="round"/>
<path d="M39.3357 37V40.5" stroke="#317056" stroke-width="4" stroke-linecap="round" stroke-linejoin="round"/>
<path d="M46.408 28.25L43.377 30" stroke="#317056" stroke-width="4" stroke-linecap="round" stroke-linejoin="round"/>
<path d="M35.2967 34.667L32.2633 36.417" stroke="#317056" stroke-width="4" stroke-linecap="round" stroke-linejoin="round"/>
<path d="M32.2633 28.25L35.2967 30" stroke="#317056" stroke-width="4" stroke-linecap="round" stroke-linejoin="round"/>
<path d="M43.377 34.667L46.4104 36.417" stroke="#317056" stroke-width="4" stroke-linecap="round" stroke-linejoin="round"/>
</svg>
