<svg width="46" height="42" viewBox="0 0 46 42" fill="none" xmlns="http://www.w3.org/2000/svg">
<path d="M18.3333 15.9997C18.3333 17.2374 18.825 18.4243 19.7002 19.2995C20.5753 20.1747 21.7623 20.6663 23 20.6663C24.2377 20.6663 25.4247 20.1747 26.2998 19.2995C27.175 18.4243 27.6667 17.2374 27.6667 15.9997C27.6667 14.762 27.175 13.575 26.2998 12.6998C25.4247 11.8247 24.2377 11.333 23 11.333C21.7623 11.333 20.5753 11.8247 19.7002 12.6998C18.825 13.575 18.3333 14.762 18.3333 15.9997Z" stroke="#317056" stroke-width="4" stroke-linecap="round" stroke-linejoin="round"/>
<path d="M30.07 28.782C27.8031 29.5999 25.4099 30.0122 23 30C14.6 30 7.6 25.3333 2 16C7.6 6.66667 14.6 2 23 2C31.4 2 38.4 6.66667 44 16C43.8033 16.3283 43.6026 16.6542 43.398 16.9777" stroke="#317056" stroke-width="4" stroke-linecap="round" stroke-linejoin="round"/>
<path d="M39.3333 25.333V32.333" stroke="#317056" stroke-width="4" stroke-linecap="round" stroke-linejoin="round"/>
<path d="M39.3333 39.333V39.3563" stroke="#317056" stroke-width="4" stroke-linecap="round" stroke-linejoin="round"/>
</svg>
