<svg width="46" height="42" viewBox="0 0 46 42" fill="none" xmlns="http://www.w3.org/2000/svg">
<path d="M13.6667 2.33301H9L2 25.6663V31.4997" stroke="#317056" stroke-width="4" stroke-linecap="round" stroke-linejoin="round"/>
<path d="M32.3333 2.33301H37L44 25.6663V31.4997" stroke="#317056" stroke-width="4" stroke-linecap="round" stroke-linejoin="round"/>
<path d="M18.3333 30.333H27.6667" stroke="#317056" stroke-width="4" stroke-linecap="round" stroke-linejoin="round"/>
<path d="M27.6667 31.4997C27.6667 33.6656 28.5271 35.7428 30.0586 37.2744C31.5902 38.8059 33.6674 39.6663 35.8333 39.6663C37.9993 39.6663 40.0765 38.8059 41.608 37.2744C43.1396 35.7428 44 33.6656 44 31.4997C44 29.3337 43.1396 27.2565 41.608 25.725C40.0765 24.1934 37.9993 23.333 35.8333 23.333C33.6674 23.333 31.5902 24.1934 30.0586 25.725C28.5271 27.2565 27.6667 29.3337 27.6667 31.4997Z" stroke="#317056" stroke-width="4" stroke-linecap="round" stroke-linejoin="round"/>
<path d="M2 31.4997C2 32.5721 2.21124 33.6341 2.62165 34.6249C3.03206 35.6157 3.63362 36.516 4.39196 37.2744C5.15031 38.0327 6.05059 38.6343 7.04142 39.0447C8.03224 39.4551 9.0942 39.6663 10.1667 39.6663C11.2391 39.6663 12.3011 39.4551 13.2919 39.0447C14.2827 38.6343 15.183 38.0327 15.9414 37.2744C16.6997 36.516 17.3013 35.6157 17.7117 34.6249C18.1221 33.6341 18.3333 32.5721 18.3333 31.4997C18.3333 30.4272 18.1221 29.3653 17.7117 28.3744C17.3013 27.3836 16.6997 26.4833 15.9414 25.725C15.183 24.9666 14.2827 24.3651 13.2919 23.9547C12.3011 23.5442 11.2391 23.333 10.1667 23.333C9.0942 23.333 8.03224 23.5442 7.04142 23.9547C6.05059 24.3651 5.15031 24.9666 4.39196 25.725C3.63362 26.4833 3.03206 27.3836 2.62165 28.3744C2.21124 29.3653 2 30.4272 2 31.4997Z" stroke="#317056" stroke-width="4" stroke-linecap="round" stroke-linejoin="round"/>
</svg>
