<svg width="49" height="42" viewBox="0 0 49 42" fill="none" xmlns="http://www.w3.org/2000/svg">
<path d="M18.3333 15.9997C18.3333 17.2374 18.825 18.4243 19.7002 19.2995C20.5753 20.1747 21.7623 20.6663 23 20.6663C24.2377 20.6663 25.4247 20.1747 26.2998 19.2995C27.175 18.4243 27.6667 17.2374 27.6667 15.9997C27.6667 14.762 27.175 13.575 26.2998 12.6998C25.4247 11.8247 24.2377 11.333 23 11.333C21.7623 11.333 20.5753 11.8247 19.7002 12.6998C18.825 13.575 18.3333 14.762 18.3333 15.9997Z" stroke="#317056" stroke-width="4" stroke-linecap="round" stroke-linejoin="round"/>
<path d="M17.4187 29.258C11.45 27.6013 6.312 23.1843 2 16C7.6 6.66667 14.6 2 23 2C31.4 2 38.4 6.66667 44 16" stroke="#317056" stroke-width="4" stroke-linecap="round" stroke-linejoin="round"/>
<path d="M36.5333 36.5734L31.4653 39.2288C31.3149 39.307 31.1457 39.342 30.9766 39.3297C30.8075 39.3174 30.6452 39.2583 30.5077 39.1591C30.3702 39.0598 30.2631 38.9243 30.1981 38.7677C30.1332 38.6111 30.1131 38.4395 30.14 38.2721L31.1083 32.6464L27.0087 28.6634C26.8863 28.5451 26.7997 28.3948 26.7586 28.2296C26.7176 28.0645 26.7239 27.8911 26.7767 27.7293C26.8295 27.5675 26.9267 27.4238 27.0572 27.3146C27.1878 27.2054 27.3464 27.1351 27.515 27.1118L33.1803 26.2904L35.7143 21.1734C35.7901 21.021 35.9069 20.8928 36.0516 20.8032C36.1963 20.7135 36.3631 20.666 36.5333 20.666C36.7035 20.666 36.8704 20.7135 37.0151 20.8032C37.1597 20.8928 37.2766 21.021 37.3523 21.1734L39.8863 26.2904L45.5517 27.1118C45.7198 27.1359 45.8777 27.2067 46.0077 27.316C46.1377 27.4253 46.2345 27.5687 46.2872 27.7302C46.3399 27.8916 46.3463 28.0646 46.3058 28.2295C46.2653 28.3945 46.1795 28.5448 46.058 28.6634L41.9583 32.6464L42.9243 38.2698C42.9533 38.4375 42.9347 38.6099 42.8706 38.7676C42.8065 38.9252 42.6995 39.0617 42.5617 39.1616C42.4239 39.2615 42.2609 39.3207 42.0911 39.3326C41.9214 39.3444 41.7517 39.3085 41.6013 39.2288L36.5333 36.5734Z" stroke="#317056" stroke-width="4" stroke-linecap="round" stroke-linejoin="round"/>
</svg>
